# xmcd
#
# Track frame offsets:
#	150
#	21204
#	39558
#	55591
#	83684
#	106680
#	128786
#	149011
#	168705
#	185972
#	205328
#	222151
#
# Disc length: 3238 seconds
#
# Revision: 0
# Processed by: cddbd v1.5.2PL0 Copyright (c) Steve Scherf et al.
# Submitted via: EasyCDDAExtractor 16.0.1.1
#
DISCID=ae0ca40c
DTITLE=Deana Carter - The Chain
DYEAR=2007
DGENRE=Country
TTITLE0=Deana Carter - Crying
TTITLE1=Deana Carter and Kris Kristofferson - Help Me Make It Through The Night
TTITLE2=Deana Carter and Dolly Parton - Love Is Like A Butterfly
TTITLE3=Deana Carter - The Boxer
TTITLE4=Deana Carter - Lay Lady Lay
TTITLE5=Deana Carter - The Weight
TTITLE6=Deana Carter and Jessi Colter - I'm Not Lisa
TTITLE7=Deana Carter and John Anderson - Swinging
TTITLE8=Deana Carter and Willie Nelson - On The Road Again
TTITLE9=Deana Carter - Good Hearted Woman
TTITLE10=Deana Carter and George Jones - He Thinks I Still Care
TTITLE11=Deana Carter - Old Man
EXTD=
EXTT0=
EXTT1=
EXTT2=
EXTT3=
EXTT4=
EXTT5=
EXTT6=
EXTT7=
EXTT8=
EXTT9=
EXTT10=
EXTT11=
PLAYORDER=
